<?xml version="1.0" encoding="UTF-8" standalone="no"?>
<!DOCTYPE svg PUBLIC "-//W3C//DTD SVG 1.1//EN" "http://www.w3.org/Graphics/SVG/1.1/DTD/svg11.dtd">
<svg width="100%" height="100%" viewBox="0 0 64 64" version="1.1" xmlns="http://www.w3.org/2000/svg" xmlns:xlink="http://www.w3.org/1999/xlink" xml:space="preserve" xmlns:serif="http://www.serif.com/" style="fill-rule:evenodd;clip-rule:evenodd;stroke-linejoin:round;stroke-miterlimit:2;">
    <g transform="matrix(0.704381,0,0,0.651559,-126.599,-66.8434)">
        <path d="M240.452,160.76C241.483,161.786 242.501,162.901 243.512,164.101C246.512,167.664 249.311,172.34 254.748,181.199C258.17,186.777 260.912,190.973 262.975,193.785L268.178,200.816L251.444,200.816L247.16,194.344C247.02,194.11 246.739,193.711 246.317,193.148L243.579,189.279L239.225,182.103L234.52,174.435C231.618,170.402 230.378,168.727 227.961,166.34C227.108,165.498 226.285,164.739 225.489,164.065C230.741,163.165 235.955,161.982 240.452,160.76Z" style="fill:rgb(123,158,137);"/>
    </g>
    <g transform="matrix(0.704381,0,0,0.651559,-126.599,-66.8434)">
        <path d="M206.514,158.066L206.514,200.816L192.452,200.816L192.452,102.59L217.061,102.59C226.998,102.59 234.885,105.051 240.721,109.973C246.557,114.895 249.475,121.551 249.475,129.941C249.475,135.66 248.045,140.606 245.186,144.777C242.327,148.949 238.225,152.066 232.881,154.129L232.882,154.129C224.108,156.614 218.001,157.412 210.048,157.882L206.514,158.066ZM210.733,114.543L206.514,114.543L206.514,145.551L211.858,145.551C218.983,145.551 223.87,144.941 226.518,143.723C229.166,142.504 231.229,140.664 232.705,138.203C234.182,135.742 234.92,132.941 234.92,129.801C234.92,126.707 234.1,123.906 232.459,121.398C230.819,118.891 228.51,117.121 225.534,116.09C222.557,115.059 217.623,114.543 210.733,114.543Z" style="fill:rgb(241,136,9);"/>
    </g>
</svg>
